


<svg width="191" height="191" viewBox="0 0 50.535386 50.535397" version="1.1" id="svg5" xmlns="http://www.w3.org/2000/svg">
  <defs id="defs2"></defs>
  <g id="layer1">
    <g transform="matrix(0.35277777,0,0,-0.35277777,-79.258668,173.42258)" id="g10">
      <path id="path12" style="fill:#2056ae;fill-opacity:1;fill-rule:nonzero;stroke:none" d="m 242.0542,430.4512 c -0.4053,-2.0117 -1.6992,-3.3496 -3.4434,-3.002 -1.7959,0.3545 -2.6015,2.2334 -2.2441,3.9795 0.0713,0.3945 0.1973,0.7637 0.4414,1.0938 -0.1914,-1.3467 0.3467,-2.9522 1.8457,-3.2491 1.3711,-0.2724 2.1123,0.5811 2.3623,1.8164 0.0742,0.3721 0.1162,0.7403 0.126,1.0987 l -7.041,1.3955 c -0.874,0.1767 -1.4961,0.3174 -2.1309,-0.4131 l -0.0488,0.01 0.6201,3.0791 0.0498,-0.0118 c 0.1191,-0.8457 1.293,-0.9794 1.9981,-1.1162 l 5.8828,-1.1621 c 0.7021,-0.1455 1.8281,-0.457 2.2968,0.2491 l 0.044,-0.006 -0.7588,-3.7617 v 0 z"></path>
      <path id="path14" style="fill:#2056ae;fill-opacity:1;fill-rule:nonzero;stroke:none" d="m 231.6099,419.8477 c -0.9034,0.7158 -1.2412,2.0263 -1.2061,3.1308 0.04,1.043 0.4131,2.1367 1.209,2.8233 0.9482,0.8037 2.0215,0.7392 3.1621,0.6953 l 4.2422,-0.1309 c 0.7226,-0.0254 1.8818,-0.1738 2.21,0.6162 h 0.0458 l -0.0986,-2.9931 h -0.042 c -0.2832,0.7959 -1.4453,0.747 -2.1572,0.7607 l -4.2539,0.1377 c -2.1152,0.0771 -3.124,-0.7793 -3.1836,-2.3994 -0.0254,-0.8897 0.3057,-1.8037 1.0352,-2.3379 0.4716,-0.3633 0.8652,-0.3604 1.4394,-0.3818 l 4.7891,-0.1641 c 0.7109,-0.0186 1.873,-0.1514 2.205,0.6309 l 0.0489,-0.004 -0.1035,-2.9873 -0.0498,-0.0107 c -0.2735,0.8125 -1.4366,0.7549 -2.1709,0.7744 l -6.002,0.2002 c -0.7129,0.0186 -1.8691,0.1563 -2.1982,-0.6396 l -0.0479,0.003 0.0742,2.3135 1.0528,-0.0371 v 0 z"></path>
      <path id="path16" style="fill:#2056ae;fill-opacity:1;fill-rule:nonzero;stroke:none" d="m 240.0112,410.2168 c 0.5401,0.6875 0.7823,1.709 0.67,2.5869 -0.1182,0.8897 -0.6114,1.9756 -1.6993,1.835 -2.167,-0.2754 -1.4257,-5.6602 -4.3466,-6.0274 -1.6954,-0.2265 -3.502,1.3272 -3.8184,3.7657 -0.1289,0.9628 -0.1104,1.9267 0.1035,2.8613 l 1.9131,0.7207 c -0.6836,-1.0332 -1.0176,-2.3848 -0.8574,-3.6074 0.1123,-0.8848 0.8281,-2.1582 1.9306,-2.0303 2.4659,0.3232 1.3174,5.6533 4.6661,6.0791 1.9873,0.2451 3.0117,-1.6641 3.2587,-3.5772 0.1055,-0.7793 0.1006,-1.5947 -0.04,-2.3789 z"></path>
      <path id="path18" style="fill:#2056ae;fill-opacity:1;fill-rule:nonzero;stroke:none" d="m 238.3452,402.4639 -0.8613,2.9922 4.292,-0.42 -3.4307,-2.5722 v 0 m -1.0039,-0.7696 -1.9267,-1.4209 c -0.9561,-0.7129 -1.085,-0.8789 -1.6446,-0.2285 l -0.042,-0.0176 0.8994,-3.1093 0.0391,0.0117 c 0.2012,0.9892 0.9814,1.5078 1.752,2.0957 l 6.9482,5.3818 -0.6885,2.3946 -0.0488,-0.0127 c -0.0254,-0.7881 -0.7441,-0.6905 -1.3565,-0.628 l -7.1162,0.7325 c -0.9629,0.0859 -1.9004,0.1025 -2.5947,0.8623 l -0.0439,-0.0137 0.7949,-2.7969 0.0498,0.0166 c 0.0674,0.8086 0.54,0.8291 1.4922,0.7432 l 2.3818,-0.1748 z"></path>
      <path id="path20" style="fill:#2056ae;fill-opacity:1;fill-rule:nonzero;stroke:none" d="m 237.5825,395.4648 c -0.8037,-0.3877 -1.3799,-0.6474 -1.4541,-1.6162 l -0.0449,-0.0185 -1.2314,2.5088 0.0419,0.0175 c 0.8125,-0.5351 1.3848,-0.2509 2.1827,0.1329 l 5.7119,2.7519 c 0.8066,0.3936 1.374,0.6719 1.4433,1.6192 l 0.042,0.0253 1.0205,-2.0761 -0.0195,-0.008 c -0.1436,-0.1338 -0.1904,-0.2305 -0.2549,-0.3848 l -0.1865,-0.3369 -4.0527,-8.3828 5.4218,2.6181 c 0.8067,0.3887 1.3838,0.6465 1.4375,1.6114 l 0.042,0.0205 1.2276,-2.5049 -0.0352,-0.0166 c -0.7969,0.5303 -1.3652,0.2549 -2.1719,-0.1289 l -8.0234,-3.8877 c -0.1465,1.1738 0.1094,1.8398 0.6113,2.8613 l 3.8311,7.8731 -5.5391,-2.6788 v 0 z"></path>
      <path id="path22" style="fill:#2056ae;fill-opacity:1;fill-rule:nonzero;stroke:none" d="m 246.5425,380.085 c -0.6621,-0.5889 -1.1494,-1.0039 -0.9522,-1.9512 l -0.0322,-0.0293 -1.8867,2.0703 0.0332,0.0361 c 0.9316,-0.2959 1.4072,0.1221 2.0664,0.7139 l 4.7256,4.2139 c 0.6611,0.5918 1.1318,1.0176 0.9346,1.9414 l 0.0322,0.0322 1.5595,-1.7109 -0.009,-0.0137 c -0.1075,-0.1631 -0.1182,-0.2715 -0.1446,-0.4395 l -0.0849,-0.3711 -1.5625,-9.1708 4.4804,4.0048 c 0.6651,0.5918 1.1485,0.9981 0.9356,1.9346 l 0.042,0.0352 1.875,-2.0645 -0.0401,-0.0322 c -0.9091,0.29 -1.3838,-0.1231 -2.0449,-0.7188 l -6.6357,-5.9297 c -0.4727,1.0928 -0.4102,1.8018 -0.2051,2.9219 l 1.4863,8.6074 -4.5732,-4.08 v 0 z"></path>
      <path id="path24" style="fill:#2056ae;fill-opacity:1;fill-rule:nonzero;stroke:none" d="m 259.6626,371.3193 -2.4736,1.918 3.7109,2.1709 -1.2373,-4.0889 v 0 m -0.3545,-1.1953 -0.7051,-2.2861 c -0.3437,-1.1318 -0.3506,-1.3457 -1.1816,-1.1436 l -0.0332,-0.039 2.5771,-1.9873 0.0381,0.0361 c -0.4375,0.915 -0.1201,1.7881 0.1533,2.7129 l 2.4024,8.4101 -1.9815,1.5352 -0.0322,-0.043 c 0.4522,-0.6533 -0.1933,-0.9863 -0.7197,-1.3007 l -6.1748,-3.5791 c -0.8379,-0.4932 -1.5977,-1.0235 -2.6162,-0.8262 l -0.0215,-0.0401 2.3125,-1.7802 0.0215,0.04 c -0.4239,0.6875 -0.0498,0.9902 0.7578,1.4756 l 2.0322,1.2549 z"></path>
      <path id="path26" style="fill:#2056ae;fill-opacity:1;fill-rule:nonzero;stroke:none" d="m 264.6938,364.3438 c -0.4638,-0.7813 -0.7841,-1.3106 -0.3037,-2.1475 l -0.0224,-0.0371 -2.7295,1.5615 0.0293,0.04 c 0.8349,-0.1347 1.3428,0.9092 1.6992,1.5235 l 3.5645,6.0898 -1.21,0.7002 c -0.5957,0.333 -1.2998,0.541 -1.9551,0.3955 l -0.0478,0.0264 1.4326,1.3428 0.042,-0.0225 c 0.125,-0.167 0.3047,-0.2676 0.4668,-0.3926 l 0.3476,-0.205 5.1367,-2.9542 c 0.2344,-0.1328 0.459,-0.249 0.6905,-0.2666 l 0.04,-0.0175 -1.3945,-1.3809 -0.0371,0.0254 c 0.0986,0.584 -0.4141,0.9707 -0.8653,1.2344 l -1.2392,0.7031 z"></path>
      <path id="path28" style="fill:#2056ae;fill-opacity:1;fill-rule:nonzero;stroke:none" d="m 272.2134,367.4053 c 0.291,0.665 0.8603,1.6738 0.2422,2.2724 l 0.0166,0.045 2.7705,-1.21 -0.0127,-0.0371 c -0.8613,0.0371 -1.2432,-1.0703 -1.5274,-1.7188 l -2.4121,-5.4511 c -0.2939,-0.6504 -0.8467,-1.6592 -0.2392,-2.253 l -0.0235,-0.04 -2.7666,1.2012 0.0225,0.0429 c 0.8428,-0.0615 1.2266,1.0537 1.5088,1.6993 z"></path>
      <path id="path30" style="fill:#2056ae;fill-opacity:1;fill-rule:nonzero;stroke:none" d="m 281.0337,365.6328 c 2.4238,-0.666 3.249,-3.207 2.624,-5.4209 -0.6406,-2.2676 -2.6035,-3.5478 -4.9336,-2.8955 -2.415,0.6611 -3.3095,3.2715 -2.7148,5.3984 0.6523,2.2998 2.6484,3.5801 5.0244,2.918 v 0 m 0.4209,1.0664 c -3.1983,0.9688 -6.4102,-0.7471 -7.2207,-3.6387 -0.8887,-3.1132 1.0693,-5.9804 4.1055,-6.8222 3.0498,-0.8487 6.2753,0.6865 7.1455,3.793 0.7773,2.7314 -0.8086,5.7949 -4.0303,6.6679 z"></path>
      <path id="path32" style="fill:#2056ae;fill-opacity:1;fill-rule:nonzero;stroke:none" d="m 288.0757,356.6221 c -0.0645,-0.8809 -0.1279,-1.5127 0.6806,-2.0596 l -0.007,-0.043 -2.8096,0.208 v 0.042 c 0.8789,0.4248 0.9297,1.0567 0.9981,1.9385 l 0.4658,6.2715 c 0.0674,0.8916 0.1133,1.5176 -0.6758,2.0498 l -9e-4,0.0469 2.3242,-0.1699 -0.001,-0.0137 c 0.0478,-0.1953 0.1074,-0.2744 0.209,-0.4121 l 0.1933,-0.3311 5.2676,-7.7012 0.4522,5.9747 c 0.0673,0.872 0.1259,1.5087 -0.6836,2.04 l 0.009,0.0361 2.7934,-0.1982 -0.01,-0.042 c -0.8541,-0.4131 -0.9029,-1.0469 -0.9693,-1.9258 l -0.6592,-8.8252 c -1.1015,0.459 -1.5498,1.0117 -2.1855,1.9551 l -4.9307,7.25 -0.4609,-6.0908 v 0 z"></path>
      <path id="path34" style="fill:#2056ae;fill-opacity:1;fill-rule:nonzero;stroke:none" d="m 303.8359,359.5059 -3.125,-0.3155 1.1641,4.1104 1.9609,-3.7949 v 0 m 0.5801,-1.1192 1.082,-2.123 c 0.5372,-1.0596 0.6836,-1.2217 -0.0585,-1.6358 l 0.002,-0.0537 3.25,0.3291 -0.008,0.0469 c -0.9453,0.3652 -1.3281,1.2139 -1.7773,2.0664 l -4.127,7.7266 -2.4922,-0.2549 v -0.044 c 0.7871,-0.1582 0.5547,-0.8476 0.3828,-1.4414 l -1.9726,-6.8115 c -0.2539,-0.9258 -0.4278,-1.8379 -1.3028,-2.3828 l 0.004,-0.0479 2.9161,0.293 -0.004,0.0498 c -0.7929,0.2061 -0.7285,0.6738 -0.4843,1.5781 l 0.5898,2.3077 z"></path>
      <path id="path36" style="fill:#2056ae;fill-opacity:1;fill-rule:nonzero;stroke:none" d="m 313.9375,357.5547 c 1.0703,0.2207 1.877,0.8057 2.4766,1.6484 l 0.0429,0.0127 -0.2461,-2.2344 -6.3281,-1.6767 -0.0137,0.043 c 0.7071,0.4863 0.3164,1.5908 0.125,2.2744 l -1.5371,5.748 c -0.1933,0.6983 -0.4062,1.8438 -1.2636,1.919 l -0.0137,0.0517 2.9375,0.7735 0.0137,-0.042 c -0.7051,-0.502 -0.2969,-1.6065 -0.1114,-2.2862 l 1.793,-6.6435 z"></path>
      <path id="path38" style="fill:#2056ae;fill-opacity:1;fill-rule:nonzero;stroke:none" d="m 329.627,364.3633 c -0.1797,-1.1377 -1.1407,-2.0869 -2.1172,-2.6201 -0.9219,-0.4981 -2.0606,-0.7344 -3.0606,-0.3916 -1.1836,0.3916 -1.6719,1.3398 -2.2129,2.3379 l -2.041,3.706 c -0.3418,0.6172 -0.8008,1.6797 -1.664,1.5596 l -0.0196,0.041 2.6582,1.4375 0.0215,-0.0449 c -0.5527,-0.6377 0.084,-1.6094 0.4297,-2.2305 l 2.0371,-3.6982 c 1.0176,-1.835 2.2656,-2.2793 3.707,-1.4942 0.7871,0.418 1.4024,1.169 1.5078,2.0664 0.0762,0.585 -0.121,0.9258 -0.4003,1.4209 l -2.293,4.1729 c -0.3457,0.625 -0.8301,1.6806 -1.668,1.5703 l -0.0176,0.0283 2.6524,1.4434 0.0351,-0.0401 c -0.5644,-0.6386 0.0743,-1.6093 0.4278,-2.2451 l 2.873,-5.2265 c 0.3438,-0.6192 0.8184,-1.6788 1.6797,-1.5567 l 0.0215,-0.04 -2.0586,-1.1075 z"></path>
      <path id="path40" style="fill:#2056ae;fill-opacity:1;fill-rule:nonzero;stroke:none" d="m 334.8711,369.1162 c 0.5723,-0.6787 0.9687,-1.1777 1.9297,-1.0146 l 0.0351,-0.0332 -2.1699,-1.7969 -0.0254,0.0381 c 0.3301,0.915 -0.0801,1.3984 -0.6523,2.0771 l -4.0723,4.8389 c -0.5703,0.666 -0.9726,1.1504 -1.9199,0.9902 l -0.0273,0.043 1.7851,1.4746 0.01,-0.0117 c 0.1679,-0.1074 0.2636,-0.124 0.4355,-0.1553 l 0.3809,-0.1035 9.1836,-1.8848 -3.8711,4.585 c -0.5742,0.6846 -0.9668,1.1728 -1.9199,1.0019 l -0.0313,0.0401 2.1563,1.7803 0.0253,-0.0411 c -0.3281,-0.8886 0.0762,-1.374 0.6485,-2.0478 l 5.7265,-6.7959 c -1.1132,-0.4287 -1.8281,-0.3457 -2.9453,-0.0908 l -8.6308,1.792 3.9492,-4.6856 v 0 z"></path>
      <path id="path42" style="fill:#2056ae;fill-opacity:1;fill-rule:nonzero;stroke:none" d="m 339.0547,381.2607 c -0.5391,0.4776 -1.3438,1.3321 -2.1094,0.9288 l -0.0293,0.0332 2.0078,2.2373 0.0352,-0.0313 c -0.3027,-0.793 0.6426,-1.4961 1.1719,-1.9648 l 4.4843,-3.9512 c 0.543,-0.4814 1.3418,-1.3203 2.0996,-0.9219 l 0.0372,-0.0371 -2.0157,-2.2344 -0.0351,0.0313 c 0.3144,0.7754 -0.6309,1.4844 -1.1602,1.9502 z"></path>
      <path id="path44" style="fill:#2056ae;fill-opacity:1;fill-rule:nonzero;stroke:none" d="m 345.7324,389.0527 c -0.6699,0.9981 -1.4394,2.1748 -2.3281,1.5987 l -0.043,0.0215 1.3575,1.9257 6.5878,-9.623 c -1.2382,-0.4873 -1.5507,-0.7129 -2.8457,-0.376 l -6.7187,1.7285 c -0.8379,0.2198 -1.7422,0.542 -2.5801,0.2832 l -0.0351,0.0254 1.3222,1.8936 0.1465,-0.1182 c 0.291,-0.2041 1.1055,-0.3994 1.4648,-0.4873 l 7.129,-1.8623 z"></path>
      <path id="path46" style="fill:#2056ae;fill-opacity:1;fill-rule:nonzero;stroke:none" d="m 354.0234,391.1758 1.0567,1.7187 c 0.5488,0.8975 0.7324,2.0176 0.4531,3.0352 l 0.01,0.042 1.5683,-1.5401 -2.9121,-5.917 -0.0449,0.0245 c 0.1035,0.8437 -1.0059,1.2802 -1.6484,1.5898 l -5.3887,2.6065 c -0.6582,0.3144 -1.6602,0.9013 -2.2891,0.3076 l -0.039,0.0263 2.2265,4.5342 c 0.1172,0.2383 0.2676,0.4658 0.2598,0.7031 l 0.0117,0.045 1.6836,-0.8106 -0.0234,-0.042 c -0.7305,-0.1963 -1.0703,-0.747 -1.3926,-1.3955 -0.2481,-0.4951 -0.4805,-1.001 -0.6152,-1.4931 l 2.6582,-1.292 0.8339,1.6875 c 0.1094,0.2275 0.2207,0.456 0.2207,0.663 l 0.0176,0.0459 1.5196,-0.7392 -0.0157,-0.0401 c -0.5254,-0.0292 -0.8027,-0.6308 -1.0273,-1.0654 l -0.5137,-1.0537 3.3906,-1.6406 v 0 z"></path>
      <path id="path48" style="fill:#2056ae;fill-opacity:1;fill-rule:nonzero;stroke:none" d="m 349.043,403.2344 c 0.6601,2.0088 2.082,2.7568 3.459,2.3115 1.3242,-0.4277 1.9902,-1.9209 1.8789,-3.2412 l 3.4433,1.2724 c 0.9942,0.376 2.0918,1.0655 2.9278,1.7422 l -0.459,-1.3701 c -0.2617,-0.8027 -0.6231,-1.2353 -1.3301,-1.5019 l -2.8887,-1.0899 -2.5859,-0.6933 c 0.2129,1.2617 0.1133,2.8388 -1.3086,3.3037 -1.0938,0.3427 -2.0371,-0.3838 -2.3203,-1.4033 -0.0996,-0.3487 -0.1641,-0.6924 -0.211,-1.0528 l 6.7774,-2.1894 c 0.6953,-0.2256 1.7734,-0.6768 2.2988,9e-4 l 0.041,-0.0127 -0.9414,-2.872 -0.041,0.0117 c -0.0234,0.8525 -1.1816,1.1162 -1.8574,1.3428 l -5.707,1.831 c -0.6973,0.2305 -1.7618,0.6924 -2.3125,0.0205 l -0.045,0.0127 z"></path>
      <path id="path50" style="fill:#2056ae;fill-opacity:1;fill-rule:nonzero;stroke:none" d="m 353.2969,413.4258 c -0.7246,-0.5069 -1.2442,-1.4141 -1.3906,-2.2891 -0.1465,-0.8906 0.0156,-2.0625 1.1015,-2.2304 2.1485,-0.3584 3.0039,5.0039 5.9063,4.5332 1.6855,-0.2706 2.9609,-2.2754 2.5664,-4.7081 -0.1543,-0.9472 -0.459,-1.875 -0.9317,-2.706 l -2.0371,-0.1299 c 0.9453,0.7861 1.668,1.9736 1.8653,3.1943 0.1464,0.8858 -0.1661,2.3145 -1.2618,2.4922 -2.4511,0.3985 -2.9062,-5.0312 -6.2343,-4.4922 -1.9746,0.3223 -2.4004,2.4541 -2.084,4.3565 0.1269,0.7773 0.3691,1.5576 0.7285,2.2646 z"></path>
      <path id="path52" style="fill:#2056ae;fill-opacity:1;fill-rule:nonzero;stroke:none" d="m 353.75,416.1289 c -0.7305,0.042 -1.8867,0.2149 -2.2344,-0.5615 h -0.041 l 0.1699,2.9756 h 0.043 c 0.2559,-0.7989 1.4453,-0.7754 2.1523,-0.8116 l 5.9922,-0.3398 c 0.7168,-0.043 1.8692,-0.2031 2.2227,0.5605 h 0.0449 l -0.1719,-2.9833 -0.0468,0.005 c -0.2383,0.8037 -1.418,0.7735 -2.1368,0.8184 l -5.9941,0.3369 v 0 z"></path>
      <path id="path54" style="fill:#2056ae;fill-opacity:1;fill-rule:nonzero;stroke:none" d="m 359.8594,424.2783 c 0.9082,0.0547 1.5332,0.0694 1.9746,0.9375 l 0.0586,0.002 0.164,-3.125 -0.0566,-0.004 c -0.3418,0.7715 -1.5,0.6191 -2.2148,0.5781 l -7.0879,-0.375 0.0742,-1.3906 c 0.0371,-0.6729 0.2539,-1.375 0.7383,-1.8379 l 0.004,-0.044 -1.9239,0.4512 -0.004,0.0449 c 0.0743,0.1856 0.0704,0.3955 0.0782,0.6006 l -0.0196,0.3955 -0.3222,5.8838 c -0.01,0.2686 -0.0332,0.5137 -0.1465,0.7178 l -0.002,0.0498 1.9219,-0.4092 v -0.0478 c -0.5449,-0.2315 -0.5879,-0.8672 -0.5644,-1.3887 l 0.0761,-1.416 7.252,0.3769 v 0 z"></path>
      <path id="path56" style="fill:#2056ae;fill-opacity:1;fill-rule:nonzero;stroke:none" d="m 358.4453,433.7354 c 0.9336,0.1845 1.3965,0.2783 1.8164,1.1826 l 0.0488,0.0185 0.625,-3.0176 -0.0507,-0.01 c -0.5469,0.6738 -1.5371,0.3633 -2.2754,0.2158 l -2.3047,-0.4697 -3.6406,-3.4121 c -0.5977,-0.5547 -1.045,-0.9639 -1.3047,-1.7891 l -0.2832,1.4072 c -0.1035,0.4922 -0.0899,0.9717 0.1953,1.2442 l 3.5586,3.3056 -3.293,1.3252 c -0.4453,0.1836 -1.2637,0.3897 -1.5117,-0.5625 l -0.0469,-0.007 -0.5566,2.7041 6.5586,-2.6357 2.4648,0.5 v 0 z"></path>
      <path id="path58" style="fill:#2056ae;fill-opacity:1;fill-rule:nonzero;stroke:none" d="m 242.1226,444.9443 c 0,-0.7509 -0.6202,-1.3652 -1.3741,-1.3652 -0.7705,0 -1.3847,0.6143 -1.3847,1.3652 0,0.7549 0.6142,1.3672 1.3847,1.3672 0.7539,0 1.3741,-0.6123 1.3741,-1.3672 z"></path>
      <path id="path60" style="fill:#2056ae;fill-opacity:1;fill-rule:nonzero;stroke:none" d="m 353.4199,444.9443 c 0,-0.7509 -0.6191,-1.3652 -1.373,-1.3652 -0.7676,0 -1.3887,0.6143 -1.3887,1.3652 0,0.7549 0.6211,1.3672 1.3887,1.3672 0.7539,0 1.373,-0.6123 1.373,-1.3672 z"></path>
      <path id="path62" style="fill:#2056ae;fill-opacity:1;fill-rule:nonzero;stroke:none" d="m 300.377,483.9268 h -1.3477 v 3.2392 h -1.6191 v -8.3945 c -0.5513,-0.5908 -1.4839,-0.5567 -1.4839,-0.5567 h -4.543 c -0.0664,0 -0.1191,0.0567 -0.1191,0.125 l -0.001,6.5567 h 4.8652 v 1.2978 h -6.4824 l 0.004,-7.8535 c 0,-0.7803 0.6367,-1.4013 1.4238,-1.4013 h 4.8145 c 0,0 0.7949,-0.0752 1.522,0.3388 v -4.5195 h 1.6191 v 9.875 h 1.3477 v -9.875 h 1.6132 v 14.4072 h -1.6132 v -3.2392 0 z"></path>
      <path id="path64" style="fill:#2056ae;fill-opacity:1;fill-rule:nonzero;stroke:none" d="m 247.9819,453.3076 4.1104,4.5127 3.6152,-3.2373 1.084,1.1895 -3.6152,3.2373 4.0957,4.4931 -0.9688,0.8692 -9.29,-10.1983 z"></path>
      <path id="path66" style="fill:#2056ae;fill-opacity:1;fill-rule:nonzero;stroke:none" d="m 246.0688,457.2197 c 0.584,-0.5234 1.4854,-0.4795 2.0118,0.0987 l 5.1748,5.6796 c 0.5263,0.5782 0.4804,1.4727 -0.1035,1.9981 l -4.0567,3.6318 -1.083,-1.1914 1.6416,-1.4697 -4.917,-5.3975 -1.6426,1.4707 -1.0839,-1.1884 4.0585,-3.6319 v 0 m 4.5528,7.8789 1.4482,-1.2959 c 0.0479,-0.0439 0.0518,-0.1191 0.008,-0.167 l -4.7548,-5.2187 c -0.044,-0.0488 -0.1192,-0.0527 -0.169,-0.01 l -1.4482,1.2969 4.916,5.3945 v 0 z"></path>
      <path id="path68" style="fill:#2056ae;fill-opacity:1;fill-rule:nonzero;stroke:none" d="m 273.5659,483.2412 -1.4756,-0.6543 4.2979,-9.5449 1.4775,0.6533 -2.4345,5.4063 1.955,0.8662 -0.5312,1.1816 -1.9571,-0.8652 z"></path>
      <path id="path70" style="fill:#2056ae;fill-opacity:1;fill-rule:nonzero;stroke:none" d="m 271.2144,468.1826 -1.5977,3.543 -1.4736,-0.6504 1.5937,-3.5469 c 0.3213,-0.7109 1.1631,-1.0293 1.8819,-0.7119 l 7.7919,3.4512 -0.5302,1.1777 -7.5088,-3.3242 c -0.0606,-0.0264 -0.1319,10e-4 -0.1572,0.0615 z"></path>
      <path id="path72" style="fill:#2056ae;fill-opacity:1;fill-rule:nonzero;stroke:none" d="m 267.6704,478.7461 -0.5732,1.2764 -1.4746,-0.6524 0.5732,-1.2763 c 1.7021,-3.7764 -1.5986,-6.169 -1.8262,-6.3301 l 1.4395,-0.5449 c 0.7568,0.6601 2.3017,2.247 2.4375,4.288 1.6172,-1.2578 3.833,-1.1787 4.8379,-1.0634 l 0.5508,1.4257 c -0.335,-0.0752 -4.2774,-0.8662 -5.9649,2.877 z"></path>
      <path id="path74" style="fill:#2056ae;fill-opacity:1;fill-rule:nonzero;stroke:none" d="m 343.918,460.0127 -1.086,1.1543 -4.1269,-3.8262 -1.3321,1.4112 4.127,3.8251 -1.0898,1.1563 -4.125,-3.8262 -2.3262,2.4639 -0.9395,-0.876 9.2325,-9.7803 0.9414,0.8731 -3.3985,3.5986 z"></path>
      <path id="path76" style="fill:#2056ae;fill-opacity:1;fill-rule:nonzero;stroke:none" d="m 345.1133,458.4541 c -1.6738,-1.5518 -3.0313,-2.04 -3.0313,-2.04 l 1.1035,-1.168 c 0,0 1.3516,0.4941 3.0254,2.0469 l 4.1797,3.8769 -0.004,0.004 h 0.002 l -7.2969,7.7334 -0.9434,-0.874 6.2051,-6.5713 -3.2402,-3.0078 v 0 z"></path>
      <path id="path78" style="fill:#2056ae;fill-opacity:1;fill-rule:nonzero;stroke:none" d="m 329.1836,474.3252 0.5215,1.1904 -1.9727,0.8487 1.3008,2.9687 -1.4844,0.6397 -3.4082,-7.7862 1.4844,-0.6396 1.5859,3.6269 z"></path>
      <path id="path80" style="fill:#2056ae;fill-opacity:1;fill-rule:nonzero;stroke:none" d="m 325.3652,470.9658 -9.3886,4.0371 -0.5196,-1.1904 7.9043,-3.4004 -1.5957,-3.6523 1.4844,-0.6407 2.1152,4.8379 -0.002,0.002 0.002,0.007 v 0 z"></path>
      <path id="path82" style="fill:#2056ae;fill-opacity:1;fill-rule:nonzero;stroke:none" d="m 325.8711,479.2793 -3.7539,1.6172 0.6484,1.4805 -1.4883,0.6396 -0.6503,-1.4814 -3.7481,1.6142 -0.5273,-1.1982 1.83,-0.7862 c -0.6699,-0.3183 -1.2187,-0.8437 -1.5273,-1.5429 -0.7305,-1.6709 0.1934,-3.6768 2.0605,-4.4785 1.8692,-0.8038 3.9766,-0.1026 4.7071,1.5664 0.3066,0.6992 0.3203,1.456 0.0996,2.1582 l 1.8281,-0.7881 0.5215,1.1992 v 0 m -6.6309,-2.9395 c -1.0429,0.4473 -1.5273,1.6358 -1.0839,2.6514 0.4433,1.0127 1.6503,1.4736 2.6933,1.0244 1.043,-0.4463 1.5274,-1.6328 1.0801,-2.6494 -0.4414,-1.0146 -1.6465,-1.4766 -2.6895,-1.0264 z"></path>
      <path id="path84" style="fill:#2056ae;fill-opacity:1;fill-rule:nonzero;stroke:none" d="m 367.5156,419.626 c 0,-39.3115 -31.8691,-71.1807 -71.1802,-71.1807 -39.3164,0 -71.1845,31.8692 -71.1845,71.1807 0,39.3144 31.8681,71.1836 71.1845,71.1836 39.3111,0 71.1802,-31.8692 71.1802,-71.1836 v 0 m -71.1802,70.2119 c -38.7783,0 -70.2138,-31.4336 -70.2138,-70.2119 0,-38.7744 31.4355,-70.209 70.2138,-70.209 38.772,0 70.2056,31.4346 70.2056,70.209 0,38.7783 -31.4336,70.2119 -70.2056,70.2119 z"></path>
      <path id="path86" style="fill:#2056ae;fill-opacity:1;fill-rule:nonzero;stroke:none" d="m 347.916,419.626 c 0,-28.4873 -23.0937,-51.583 -51.5806,-51.583 -28.4912,0 -51.5888,23.0957 -51.5888,51.583 0,28.4912 23.0976,51.5859 51.5888,51.5859 28.4869,0 51.5806,-23.0947 51.5806,-51.5859 v 0 m -51.5806,50.6162 c -27.958,0 -50.6181,-22.6621 -50.6181,-50.6162 0,-27.9522 22.6601,-50.6133 50.6181,-50.6133 27.9478,0 50.6119,22.6611 50.6119,50.6133 0,27.9541 -22.6641,50.6162 -50.6119,50.6162 z"></path>
      <path id="path88" style="fill:#00a650;fill-opacity:1;fill-rule:nonzero;stroke:none" d="m 328.4824,391.6426 -23.9492,0.003 c -7.4004,-0.0557 -8.3218,-4.9326 -8.3218,-4.9326 -1.5195,5.5303 -8.6445,4.9326 -8.6445,4.9326 h -23.4053 v 34.333 h 22.5655 c 7.5068,-0.1406 9.5039,-6.081 9.5039,-6.081 2.4545,6.0214 10.2163,6.0742 10.2163,6.0742 l 22.0351,0.004 v -34.333 0 m -23.5586,37.751 c -6.5781,-0.2051 -8.6518,-4.0665 -8.6518,-4.0665 -2.086,4.042 -8.416,4.0499 -8.416,4.0499 h -27.125 v -41.126 h 26.5556 c 3.624,0 4.9024,-1.7061 5.3291,-2.9258 h 7.3433 c 1.2695,3.0801 4.9668,2.9053 4.9668,2.9053 h 27.0039 v 41.1631 z"></path>
      <path id="path90" style="fill:#00a650;fill-opacity:1;fill-rule:nonzero;stroke:none" d="m 282.3872,410.1592 h -9.8926 v -9.961 -0.004 h 13.6182 v 0.0303 h -0.0147 v 6.5117 h 3.4493 v -6.542 h 13.5893 v 6.542 h 3.4395 v -6.5322 h 13.5996 v 3.4473 h -9.8711 v 3.0898 h 9.875 v 10.335 h -13.6035 v -6.9063 h -3.4395 v 6.9063 h -3.7285 v -6.9043 h -6.1567 v 6.9043 h -3.71 v -6.9063 h -3.4316 v 6.9063 h -13.6192 v -3.4346 l 9.8965,-0.001 v -3.4814 0 m 0.005,-6.5391 h -6.1787 v 3.1162 h 6.1787 v -3.1162 0 m 17.0317,10e-4 h -6.1635 v 3.1172 h 6.1635 v -3.1172 0 m 10.8809,10.0303 h 6.1621 v -3.4854 h -6.1621 z"></path>
      <path id="path92" style="fill:#2056ae;fill-opacity:1;fill-rule:nonzero;stroke:none" d="m 294.2759,448.4297 3.2925,1.0889 h -3.2925 z"></path>
      <path id="path94" style="fill:#2056ae;fill-opacity:1;fill-rule:nonzero;stroke:none" d="m 287.1743,443.7129 c 1.207,1.2646 2.4678,1.1055 2.4678,0.5674 0,-0.544 -0.6211,-1.1865 -0.6211,-1.1865 h -7.8057 l -4.2754,6.164 v 0 c -1.0693,1.583 -2.4326,2.2686 -4.6992,2.2686 -2.2754,0 -6.5859,0 -11.498,0 v -18.5645 c 6.9912,0.003 24.1943,0.0147 26.2099,0 7.7442,-0.0732 9.2637,-3.3691 9.2637,-3.3691 1.6235,2.5644 4.7446,3.3545 9.565,3.3623 2.3906,0 19.2519,0 26.1406,0 l 0.008,18.5713 c -5.082,0 -9.3867,0 -11.6621,0 -2.25,0 -3.6192,-0.6856 -4.6836,-2.2686 h -0.006 l -4.3672,-6.164 c 0,0 -3.4843,0 -6.4765,0 v 5.4853 l 4.4336,4.333 -4.5801,-0.003 1.1562,1.0146 h -9.2768 c -1.8633,0 -3.335,-0.7607 -3.8672,-1.8174 h -3.2637 c -3.0058,0 -4.1045,-1.6943 -3.4892,-3.9189 l 1.3271,-4.4746 v 0 m 41.3081,-7.3389 c -12.3281,0 -12.8203,0 -21.8418,0 -5.8183,0 -8.539,-0.3945 -10.3882,-2.4023 -1.9951,1.9306 -3.5498,2.3935 -9.3691,2.3935 -4.9258,0 -18.6201,0 -22.7158,0 v 11.7334 h 7.1367 c 0.7061,0.0137 1.2998,-0.1513 1.6826,-0.3535 0.2861,-0.1582 0.8018,-0.5088 1.1768,-1.0244 0.4717,-0.6562 4.707,-6.8584 4.707,-6.8584 h 12.2012 c 0,0 1.1357,2.3516 1.8369,3.9893 0.7109,1.6513 0.4658,2.8134 -1.0469,2.9287 -1.2715,0.0976 -2.0703,-0.2032 -2.207,-0.7295 l -0.5401,1.8525 c -0.3242,0.9375 -0.0908,1.6162 1.2149,1.6162 h 3.9463 c 0,-0.0322 0.0859,1.2852 2.2588,1.2852 h 6.5141 l -1.8359,-1.6914 v -9.2461 h 12.6504 c 0,0 4.0234,6.1973 4.5,6.8535 0.3672,0.5156 0.8789,0.8662 1.1738,1.0244 0.375,0.2022 0.9727,0.3711 1.6719,0.3858 l 7.2734,-0.003 z"></path>
      <path id="path96" style="fill:#00a650;fill-opacity:1;fill-rule:nonzero;stroke:none" d="m 290.6323,396.7354 c 0.4922,0.1679 0.9248,0.5156 1.1768,0.9433 h 0.0166 v -3.0498 c 0,-0.3115 -0.0215,-0.5566 0.2695,-0.748 v -0.0186 h -1.1406 v 0.0186 c 0.334,0.1611 0.3105,0.4199 0.3105,0.748 v 2.0918 h -0.6328 z"></path>
      <path id="path98" style="fill:#00a650;fill-opacity:1;fill-rule:nonzero;stroke:none" d="m 293.4341,394.0938 c 0.8789,0.1787 1.6758,0.9755 1.6758,1.8798 0,0.5469 -0.3096,1.1573 -0.9424,1.1573 -0.4649,0 -0.7988,-0.3643 -0.7988,-0.8145 0,-0.499 0.3339,-0.8838 0.83,-0.8838 0.2061,0 0.4073,0.0576 0.583,0.1709 l -0.3711,-0.4541 c -0.1396,-0.0498 -0.2949,-0.0742 -0.4472,-0.0742 -0.6397,0 -1.1397,0.4785 -1.1397,1.1133 0,0.8008 0.6436,1.3281 1.417,1.3281 0.8565,0 1.4209,-0.6719 1.4209,-1.4922 0,-0.6103 -0.334,-1.2197 -0.8232,-1.5976 -0.4942,-0.3955 -1.0537,-0.5938 -1.6778,-0.6709 z"></path>
      <path id="path100" style="fill:#00a650;fill-opacity:1;fill-rule:nonzero;stroke:none" d="m 297.7676,395.0303 c -0.4766,0 -0.8706,0.0234 -1.1665,0.039 l 1.1665,1.961 v -2 0 m 0,-0.4258 V 394.46 c 0,-0.2784 0.0371,-0.4707 -0.2676,-0.5791 v -0.0186 h 1.0605 v 0.0186 c -0.2363,0.1191 -0.246,0.373 -0.246,0.6113 v 0.1123 h 0.4316 l 0.2656,0.6504 c -0.1914,-0.1602 -0.4414,-0.2246 -0.6972,-0.2246 v 2.4004 h -0.7559 l -1.6968,-2.8262 z"></path>
      <path id="path102" style="fill:#00a650;fill-opacity:1;fill-rule:nonzero;stroke:none" d="m 301.6328,397.1895 c -0.3672,-0.0538 -0.8027,-0.3321 -1.0723,-0.5791 -0.373,-0.3477 -0.5917,-0.8018 -0.5917,-1.3145 0,-0.5576 0.3183,-1.1611 0.9609,-1.1611 0.4805,0 0.7598,0.3652 0.7598,0.8252 0,0.5371 -0.2852,0.9013 -0.8438,0.9013 -0.209,0 -0.4141,-0.0634 -0.6035,-0.1797 l 0.3535,0.4424 c 0.1445,0.0645 0.3086,0.1016 0.4805,0.1016 0.6816,0 1.1718,-0.4639 1.1718,-1.1445 0,-0.7686 -0.621,-1.3067 -1.3789,-1.3067 -0.8574,0 -1.4531,0.6856 -1.4531,1.5137 0,1.2939 1.3047,2.1357 2.4824,2.2383 z"></path>
    </g>
  </g>
</svg>
